<svg xmlns="http://www.w3.org/2000/svg" viewBox="0 0 89.88 64.79"><defs><style>.cls-1{fill:#000;}.cls-2{fill:none;stroke:#000;stroke-miterlimit:10;stroke-width:0.75px;}</style></defs><g id="Layer_2" data-name="Layer 2"><path class="cls-1" d="M27.41,51.55H27a1.79,1.79,0,0,1-1.33-.48,1.82,1.82,0,0,1-.47-1.32V47.43a1.64,1.64,0,0,1,1.8-1.8h2.6a.18.18,0,0,1,.21.2v5.52a.18.18,0,0,1-.21.2h-.73a.18.18,0,0,1-.2-.2v-.42h0A1.17,1.17,0,0,1,27.41,51.55Zm1.22-2V46.73c0-.08,0-.11-.13-.11H27.12a.74.74,0,0,0-.83.85V49.7a.75.75,0,0,0,.83.86h.56C28.31,50.56,28.63,50.23,28.63,49.57Z"/><path class="cls-1" d="M33.77,51.55H33a.18.18,0,0,1-.2-.2V45.83a.18.18,0,0,1,.2-.2h.73a.18.18,0,0,1,.2.2v.41h0a1.16,1.16,0,0,1,1.18-.61h.51a1.73,1.73,0,0,1,1.3.46,1.86,1.86,0,0,1,.45,1.34v3.92a.18.18,0,0,1-.21.2h-.73a.18.18,0,0,1-.2-.2V47.47a.75.75,0,0,0-.85-.85h-.54a.85.85,0,0,0-1,1v3.75A.18.18,0,0,1,33.77,51.55Z"/><path class="cls-1" d="M40.64,46.62h-.56a.25.25,0,0,1-.15,0,.21.21,0,0,1,0-.15v-.6c0-.13.06-.2.19-.2h.56a.11.11,0,0,0,.12-.12v-1a.18.18,0,0,1,.2-.2h.74c.13,0,.19.07.19.2v1c0,.08,0,.12.13.12H43.1a.18.18,0,0,1,.21.2v.6c0,.12-.07.19-.21.19H42c-.08,0-.13,0-.13.11v3a.76.76,0,0,0,.87.85h.46a.18.18,0,0,1,.2.2v.6c0,.12-.06.19-.2.19h-.63a1.9,1.9,0,0,1-1.35-.47,1.73,1.73,0,0,1-.48-1.31v-3C40.76,46.65,40.72,46.62,40.64,46.62Z"/><path class="cls-1" d="M48.3,51.55h-.46a1.75,1.75,0,0,1-1.32-.48,1.78,1.78,0,0,1-.47-1.32V47.43a1.63,1.63,0,0,1,1.79-1.8h2.6a.18.18,0,0,1,.21.2v5.52a.18.18,0,0,1-.21.2h-.73c-.13,0-.19-.07-.19-.2v-.42h-.05A1.16,1.16,0,0,1,48.3,51.55Zm1.22-2V46.73c0-.08-.05-.11-.13-.11H48a.75.75,0,0,0-.84.85V49.7a.75.75,0,0,0,.84.86h.55A.86.86,0,0,0,49.52,49.57Z"/><path class="cls-1" d="M55.84,51.55H53.7c-.13,0-.19-.07-.19-.2v-.57c0-.12.06-.18.19-.18h1.95c.51,0,.76-.18.76-.53v-.14a.76.76,0,0,0-.55-.7l-1.26-.61a2.32,2.32,0,0,1-.86-.61,1.38,1.38,0,0,1-.27-.88c0-1,.55-1.5,1.66-1.5h1.93c.12,0,.18.07.18.2v.57c0,.13-.06.19-.18.19h-1.7a1,1,0,0,0-.53.12.4.4,0,0,0-.19.32v.13c0,.25.2.47.6.65l1.27.65a1.83,1.83,0,0,1,.83.63,1.81,1.81,0,0,1,.23.95C57.57,51,57,51.55,55.84,51.55Z"/><path class="cls-1" d="M60.46,44.64v-1c0-.13.06-.19.18-.19h.76c.12,0,.18.06.18.19v1c0,.13-.06.2-.18.2h-.76C60.52,44.84,60.46,44.77,60.46,44.64Zm0,6.71V45.83c0-.13.06-.2.18-.2h.74a.18.18,0,0,1,.2.2v5.52a.22.22,0,0,1,0,.16.26.26,0,0,1-.14,0h-.75C60.52,51.55,60.46,51.48,60.46,51.35Z"/><path class="cls-1" d="M66.86,51.55h-.45a1.78,1.78,0,0,1-1.33-.48,1.82,1.82,0,0,1-.47-1.32V47.43a1.64,1.64,0,0,1,1.8-1.8H69a.18.18,0,0,1,.21.2v5.52a.18.18,0,0,1-.21.2h-.73a.18.18,0,0,1-.2-.2v-.42h0A1.14,1.14,0,0,1,66.86,51.55Zm1.22-2V46.73c0-.08,0-.11-.13-.11H66.57a.74.74,0,0,0-.83.85V49.7c0,.57.27.86.83.86h.56C67.76,50.56,68.08,50.23,68.08,49.57Z"/><path class="cls-1" d="M73.22,53.18h-.73a.18.18,0,0,1-.2-.2V45.83a.18.18,0,0,1,.2-.2h.73a.18.18,0,0,1,.2.2v.41h0a1.15,1.15,0,0,1,1.17-.61h.6a1.7,1.7,0,0,1,1.28.46A1.85,1.85,0,0,1,77,47.43v2.32a1.86,1.86,0,0,1-.44,1.33,1.71,1.71,0,0,1-1.28.47h-.6a1.16,1.16,0,0,1-1.17-.62h0v2A.18.18,0,0,1,73.22,53.18Zm1.15-2.62H75a.75.75,0,0,0,.84-.86V47.47a.75.75,0,0,0-.84-.85h-.61c-.64,0-1,.32-1,1v2C73.42,50.23,73.73,50.56,74.37,50.56Z"/><path class="cls-1" d="M80.85,53.18h-.73a.18.18,0,0,1-.2-.2V45.83a.18.18,0,0,1,.2-.2h.73a.18.18,0,0,1,.2.2v.41h0a1.14,1.14,0,0,1,1.17-.61h.59a1.69,1.69,0,0,1,1.28.46,1.86,1.86,0,0,1,.45,1.34v2.32a1.86,1.86,0,0,1-.45,1.33,1.69,1.69,0,0,1-1.28.47h-.59a1.14,1.14,0,0,1-1.17-.62h0v2A.18.18,0,0,1,80.85,53.18ZM82,50.56h.62a.75.75,0,0,0,.83-.86V47.47a.74.74,0,0,0-.83-.85H82a.85.85,0,0,0-1,1v2C81.05,50.23,81.37,50.56,82,50.56Z"/><path class="cls-1" d="M16.45,46.76V30.09H38.72V33H19.49v19.4H12.07V7.68H43.28V5.88H12.07L4.73,12.06v46.8h9.11l6.75-6.75V40H33.41l6.41-5.82V29H15.36V46.72"/><path class="cls-1" d="M36.42,24.89H20.62V21.3h18.1l6.58-5.84V10.55H15.38V24.06L16.5,24V11.65H44.1v3.13H19.42V26.16h16.9"/><circle class="cls-2" cx="44.58" cy="6.79" r="1.48"/><circle class="cls-2" cx="15.85" cy="25.38" r="1.48"/><circle class="cls-2" cx="37.7" cy="25.62" r="1.48"/><circle class="cls-2" cx="15.85" cy="48.12" r="1.48"/></g></svg>