<?xml version="1.0" encoding="utf-8"?>
<!-- Generator: Adobe Illustrator 16.0.0, SVG Export Plug-In . SVG Version: 6.00 Build 0)  -->
<!DOCTYPE svg PUBLIC "-//W3C//DTD SVG 1.1//EN" "http://www.w3.org/Graphics/SVG/1.1/DTD/svg11.dtd">
<svg version="1.1" id="Layer_1" xmlns="http://www.w3.org/2000/svg" xmlns:xlink="http://www.w3.org/1999/xlink" x="0px" y="0px"
	 width="210.1px" height="56.683px" viewBox="37.882 111.194 210.1 56.683" enable-background="new 37.882 111.194 210.1 56.683"
	 xml:space="preserve">
<g>
	<path fill="#B51783" d="M68.425,138.836l-5.307,1.069c3.565-2.102,14.191-7.239,21.191-10.515l6.899-1.034l-21.879,11.121
		L68.425,138.836z M54.515,111.194l-1.02,4.962l4.405,17.893l0.521-5.375l-1.281-9.694L54.515,111.194z M48.989,162.5l3.149-0.467
		l5.941-17.148l-0.091-0.946l-9.399,16.819L48.989,162.5z M59.071,143.644l1.298,13.461l4.547,2.749l-0.316-4.856l-5.093-10.883
		l-0.238-0.504L59.071,143.644z M55.74,145.283l-14.447,14.801l1.028,7.793l4.923-7.398l-0.147-0.993c0,0,9.441-14.399,9.612-14.659
		L55.74,145.283z M37.883,150.181l3.816,1.494l13.411-7.678L37.883,150.181z M70.546,124.53l-1.459-4.014l-7.823,14.146
		l-0.814,4.193L70.546,124.53z M75.283,155.587l-14.688-12.467l-0.278-0.033l14.526,17.261L75.283,155.587z M59.768,126.251
		l-1.214,12.515l0.598,0.987l2.191-11.301l-1.078-2.71L59.768,126.251z M48.826,132.113l6.529,5.833l1.255,0.92l0.913,0.281
		l-7.484-12.374L48.826,132.113z M41.133,133.134l8.886,4.635l6.359,2.213l-0.313-0.229l-10.361-7.599L41.133,133.134z
		 M78.146,147.277l3.63-3.188l-11.592-0.781l-1.565,0.998L78.146,147.277z M60.045,142.084l7.988,1.375l2.695-1.721l-2.574-1.825
		l-7.944,1.6L60.045,142.084z M41.042,143.505l16.427-1.194l1.222-0.919c-0.062-0.002-11.528-0.672-14.206-0.83L41.042,143.505z"/>
	<path fill="#B51783" d="M68.426,138.836l-5.308,1.069c3.565-2.102,14.191-7.239,21.191-10.516l6.9-1.033L68.426,138.836z
		 M54.515,111.194l-1.02,4.962l4.405,17.893l0.342-3.313L54.515,111.194z M57.989,143.937l-9.399,16.818l0.399,1.744L57.989,143.937
		z M59.506,144.115l-0.238-0.504l-0.197,0.033l1.298,13.461l4.547,2.749L59.506,144.115z M49.412,155.953
		c0,0,7.126-10.867,7.297-11.129l-0.969,0.459l-14.447,14.801L49.412,155.953z M37.882,150.181l11.312-3.327l3.816-1.653L55.109,144
		L37.882,150.181z M61.264,134.662l-0.814,4.193l10.097-14.325L61.264,134.662z M69.606,151.607l-9.012-8.484l-0.278-0.035
		l14.526,17.262L69.606,151.607z M60.265,125.743l-0.497,0.509l-1.069,11.034l-0.145,1.48l0.598,0.987l0.437-2.25L60.265,125.743z
		 M48.826,132.113l6.529,5.833l1.255,0.92l0.913,0.281l-0.1-0.168L48.826,132.113z M41.133,133.134l8.887,4.635l6.358,2.213
		l-1.764-1.293L41.133,133.134z M68.62,144.306l9.526,2.971l3.63-3.188L68.62,144.306z M60.045,142.084l7.988,1.375l2.695-1.721
		l-8.854-0.561l-1.664,0.335L60.045,142.084z M45.702,141.93l9.592,0.538l2.175-0.157l1.222-0.919
		c-0.061-0.002-11.528-0.672-14.207-0.83L45.702,141.93z"/>
	<path fill="#555759" d="M205.091,161.846c-8.889,0-14.196-4.692-14.196-12.552c0-7.336,5.642-11.895,14.722-11.895
		c3.014,0,5.887,0.389,8.344,1.128v-1.652c0-5.198-1.34-8.016-8.408-8.016c-3.17,0-7.621,1.252-11.079,3.115l-0.486,0.262v-6.669
		l0.179-0.092c3.422-1.751,7.898-2.796,11.978-2.796c9.596,0,14.26,4.428,14.26,13.538v21.078l-0.155,0.097
		C216.969,159.425,211.681,161.846,205.091,161.846 M205.88,143.448c-5.471,0-8.607,2.179-8.607,5.978
		c0,4.055,2.719,6.109,8.081,6.109c3.112,0,6.313-0.803,8.604-2.154v-8.641C211.033,143.824,208.671,143.448,205.88,143.448"/>
	<path fill="#555759" d="M106.546,161.696c-4.274,0-9.622-1.698-13.006-4.134l-0.138-0.1v-7.437l0.539,0.44
		c3.828,3.125,8.374,4.919,12.473,4.919c5.446,0,7.884-2.54,7.884-5.058c0-1.812-0.639-3.647-5.27-4.806l-5.39-1.382
		c-7.063-1.736-10.498-5.28-10.498-10.832c0-6.446,5.65-10.777,14.062-10.777c3.928,0,8.456,1.074,11.267,2.672l0.167,0.096v7.023
		l-0.504-0.308c-3.329-2.046-7.304-3.173-11.192-3.173c-4.401,0-7.358,1.874-7.358,4.664c0,1.355,0.601,3.302,5.792,4.541
		l5.651,1.381c6.485,1.57,9.912,5.18,9.912,10.439C120.938,158.041,113.709,161.696,106.546,161.696"/>
	<polygon fill="#555759" points="132.744,161.253 126.205,161.253 126.205,125.333 132.744,123.252 	"/>
	<path fill="#555759" d="M171.229,161.253h-6.442v-23.261c0-5.889-3.021-9-8.738-9c-3.439,0-7.312,1.14-9.461,2.296v29.965h-6.44
		v-33.826l0.156-0.097c2.255-1.397,8.294-4.649,15.681-4.649c9.689,0,15.246,5.341,15.246,14.654L171.229,161.253L171.229,161.253z"
		/>
	<polygon fill="#555759" points="185.015,161.253 178.473,161.253 178.473,125.333 185.015,123.252 	"/>
	<path fill="#555759" d="M238.648,161.385c-6.827,0-11.238-4.513-11.238-11.499V117.93l6.442-2.073v8.204h12.483v6.114h-12.483
		v19.381c0,3.854,1.837,5.65,5.78,5.65c3.039,0,5.652-1.047,7.81-2.071l0.466-0.222l0.074,6.443l-0.191,0.091
		C245.123,160.716,241.958,161.385,238.648,161.385"/>
	<path fill="#B51783" d="M68.426,138.836l-5.308,1.069c3.565-2.102,14.191-7.239,21.191-10.516l6.9-1.033L68.426,138.836z
		 M54.515,111.194l-1.02,4.962l4.405,17.893l0.342-3.313L54.515,111.194z M57.989,143.937l-9.399,16.818l0.399,1.744L57.989,143.937
		z M59.506,144.115l-0.238-0.504l-0.197,0.033l1.298,13.461l4.547,2.749L59.506,144.115z M49.412,155.953
		c0,0,7.126-10.867,7.297-11.129l-0.969,0.459l-14.447,14.801L49.412,155.953z M37.882,150.181l11.312-3.327l3.816-1.653L55.109,144
		L37.882,150.181z M61.264,134.662l-0.814,4.193l10.097-14.325L61.264,134.662z M69.606,151.607l-9.012-8.484l-0.278-0.035
		l14.526,17.262L69.606,151.607z M60.265,125.743l-0.497,0.509l-1.069,11.034l-0.145,1.48l0.598,0.987l0.437-2.25L60.265,125.743z
		 M48.826,132.113l6.529,5.833l1.255,0.92l0.913,0.281l-0.1-0.168L48.826,132.113z M41.133,133.134l8.887,4.635l6.358,2.213
		l-1.764-1.293L41.133,133.134z M68.62,144.306l9.526,2.971l3.63-3.188L68.62,144.306z M60.045,142.084l7.988,1.375l2.695-1.721
		l-8.854-0.561l-1.664,0.335L60.045,142.084z M45.702,141.93l9.592,0.538l2.175-0.157l1.222-0.919
		c-0.061-0.002-11.528-0.672-14.207-0.83L45.702,141.93z"/>
</g>
</svg>
