<svg xmlns="http://www.w3.org/2000/svg" width="35" height="35" viewBox="0 0 35 35">
  <g id="Group_17095" data-name="Group 17095" transform="translate(9707 -1856)">
    <rect id="Rectangle_149437" data-name="Rectangle 149437" width="35" height="35" transform="translate(-9707 1856)" fill="#fff" opacity="0.002"/>
    <g id="noun_profile_2138076_1_" data-name="noun_profile_2138076 (1)" transform="translate(-9724.3 1838.8)">
      <g id="Group_17094" data-name="Group 17094" transform="translate(19.3 19.2)">
        <g id="Group_17093" data-name="Group 17093" transform="translate(0 0)">
          <g id="Group_17090" data-name="Group 17090">
            <path id="Path_45113" data-name="Path 45113" d="M34.527,49.66a15.243,15.243,0,1,1,10.765-4.468A15.12,15.12,0,0,1,34.527,49.66Zm0-29.529a14.3,14.3,0,1,0,14.3,14.3A14.319,14.319,0,0,0,34.527,20.131Z" transform="translate(-19.3 -19.2)"/>
          </g>
          <g id="Group_17091" data-name="Group 17091" transform="translate(5.415 19.508)">
            <path id="Path_45114" data-name="Path 45114" d="M113.46,334.051a15.249,15.249,0,0,1-9.642-3.441.464.464,0,0,1-.122-.565c2.157-4.346,5.8-6.946,9.764-6.946s7.613,2.593,9.764,6.946a.466.466,0,0,1-.122.565A15.286,15.286,0,0,1,113.46,334.051Zm-8.769-3.929a14.324,14.324,0,0,0,17.538,0c-2.009-3.826-5.264-6.1-8.769-6.1S106.7,326.3,104.691,330.123Z" transform="translate(-103.648 -323.1)"/>
          </g>
          <g id="Group_17092" data-name="Group 17092" transform="translate(9.372 5.527)">
            <path id="Path_45115" data-name="Path 45115" d="M171.154,117.009a5.854,5.854,0,1,1,5.854-5.854A5.86,5.86,0,0,1,171.154,117.009Zm0-10.785a4.93,4.93,0,1,0,4.93,4.93A4.935,4.935,0,0,0,171.154,106.224Z" transform="translate(-165.3 -105.3)"/>
          </g>
        </g>
      </g>
    </g>
  </g>
</svg>
